<?xml version="1.0" encoding="UTF-8" standalone="no"?>
<!-- Created with Inkscape (http://www.inkscape.org/) -->

<svg
   xmlns:dc="http://purl.org/dc/elements/1.1/"
   xmlns:cc="http://creativecommons.org/ns#"
   xmlns:rdf="http://www.w3.org/1999/02/22-rdf-syntax-ns#"
   xmlns:svg="http://www.w3.org/2000/svg"
   xmlns="http://www.w3.org/2000/svg"
   xmlns:sodipodi="http://sodipodi.sourceforge.net/DTD/sodipodi-0.dtd"
   xmlns:inkscape="http://www.inkscape.org/namespaces/inkscape"
   width="105mm"
   height="148mm"
   viewBox="0 0 105 148"
   version="1.1"
   id="svg8"
   inkscape:version="0.92.2 (5c3e80d, 2017-08-06)"
   sodipodi:docname="plant.svg">
  <defs
     id="defs2" />
  <sodipodi:namedview
     id="base"
     pagecolor="#ffffff"
     bordercolor="#666666"
     borderopacity="1.0"
     inkscape:pageopacity="0.0"
     inkscape:pageshadow="2"
     inkscape:zoom="0.98994949"
     inkscape:cx="549.93311"
     inkscape:cy="234.25125"
     inkscape:document-units="mm"
     inkscape:current-layer="layer1"
     showgrid="false"
     inkscape:window-width="1853"
     inkscape:window-height="1025"
     inkscape:window-x="67"
     inkscape:window-y="27"
     inkscape:window-maximized="1"
     units="mm" />
  <metadata
     id="metadata5">
    <rdf:RDF>
      <cc:Work
         rdf:about="">
        <dc:format>image/svg+xml</dc:format>
        <dc:type
           rdf:resource="http://purl.org/dc/dcmitype/StillImage" />
        <dc:title></dc:title>
      </cc:Work>
    </rdf:RDF>
  </metadata>
  <g
     inkscape:label="Calque 1"
     inkscape:groupmode="layer"
     id="layer1"
     transform="translate(0,-149)">
    <path
       style="fill:#80b3ff;stroke:#000000;stroke-width:3;stroke-linecap:butt;stroke-linejoin:miter;stroke-miterlimit:4;stroke-dasharray:none;stroke-opacity:1"
       d="m 24.904381,224.94906 h 54.518011 v 11.8252 h 0.0766 c -0.68253,21.06749 -9.482,29.89202 -9.482,29.89202 H 33.21776 c -0.486928,-0.19047 -7.839539,-7.70483 -8.329405,-29.89202 h 0.01603 z"
       id="path817"
       inkscape:connector-curvature="0"
       sodipodi:nodetypes="ccccccccc" />
    <path
       sodipodi:nodetypes="cc"
       style="fill:none;stroke:#000000;stroke-width:1.20000005;stroke-linecap:butt;stroke-linejoin:miter;stroke-miterlimit:4;stroke-dasharray:none;stroke-opacity:1"
       d="m 32.33424,241.94248 c 6.248908,-4.4892 9.467778,-1.38078 12.294396,3.20723"
       id="path825"
       inkscape:connector-curvature="0" />
    <path
       inkscape:connector-curvature="0"
       id="path827"
       d="m 71.020242,241.94248 c -6.24895,-4.4892 -9.46784,-1.38078 -12.29447,3.20723"
       style="fill:none;stroke:#000000;stroke-width:1.20000005;stroke-linecap:butt;stroke-linejoin:miter;stroke-miterlimit:4;stroke-dasharray:none;stroke-opacity:1"
       sodipodi:nodetypes="cc" />
    <path
       inkscape:connector-curvature="0"
       id="path829"
       d="m 55.949572,245.26843 c -2.77977,3.2374 -4.9214,1.98373 -7.04537,-0.11865"
       style="fill:none;stroke:#000000;stroke-width:0.66549051;stroke-linecap:butt;stroke-linejoin:miter;stroke-miterlimit:4;stroke-dasharray:none;stroke-opacity:1"
       sodipodi:nodetypes="cc" />
    <path
       style="fill:#2d5016;stroke:#000000;stroke-width:1;stroke-linecap:butt;stroke-linejoin:miter;stroke-miterlimit:4;stroke-dasharray:none;stroke-opacity:1"
       d="m 24.904381,224.94906 c -5.883276,-8.72365 -14.628695,-23.5996 -12.342714,-34.85687 6.236289,16.28322 14.610734,10.89624 20.847023,32.87416 -3.790456,-17.44506 -14.887293,-6.19914 -5.612659,-46.23763 7.746874,19.53733 11.058943,23.62303 12.027126,45.97036 -1.496059,-20.84703 1.251191,-29.66692 2.138156,-50.51395 9.552248,11.98024 10.643929,26.4643 12.294399,51.81806 -1.95003,-21.06229 5.4925,-38.25516 11.75986,-53.1544 1.92735,17.29296 3.08535,40.00295 -1.85477,51.80193 3.11713,-6.54057 7.11543,-28.98719 21.36545,-36.3003 -3.87962,19.60399 1.706,26.30995 -6.10386,38.59864 z"
       id="path831"
       inkscape:connector-curvature="0"
       sodipodi:nodetypes="cccccccccccc" />
    <path
       sodipodi:nodetypes="cccccccccccc"
       inkscape:connector-curvature="0"
       id="path833"
       d="m 79.015152,224.63344 c 5.88327,-8.72365 16.499577,-17.18514 12.34272,-34.85687 -6.2363,16.28322 -14.61074,13.0129 -20.84703,34.99082 3.79046,-17.44506 11.947332,-9.9409 5.61266,-46.23763 -4.272376,12.32105 -11.05894,23.62303 -12.02713,45.97036 1.49606,-20.84703 -8.73474,-33.65447 -9.6217,-54.5015 -10.8886,18.66197 -3.1604,28.33519 -4.81088,53.68895 1.95004,-21.0623 -8.699742,-33.17704 -14.967102,-48.07629 -1.92735,17.29296 -0.407283,37.0415 4.532837,48.84049 -3.11713,-6.54058 -6.586263,-31.10386 -20.836283,-38.41698 3.87962,19.604 -1.706,26.30995 6.10386,38.59865 z"
       style="fill:#338000;stroke:#000000;stroke-width:1;stroke-linecap:butt;stroke-linejoin:miter;stroke-miterlimit:4;stroke-dasharray:none;stroke-opacity:1" />
    <ellipse
       style="fill:#ff5555;fill-opacity:1;fill-rule:evenodd;stroke:none;stroke-width:1;stroke-linecap:round;stroke-linejoin:round;stroke-miterlimit:4;stroke-dasharray:none;stroke-opacity:1"
       id="path854"
       cx="30.912603"
       cy="248.12193"
       rx="5.7462945"
       ry="2.9399648" />
    <ellipse
       ry="2.9399648"
       rx="5.7462945"
       cy="248.12193"
       cx="73.775146"
       id="ellipse856"
       style="fill:#ff5555;fill-opacity:1;fill-rule:evenodd;stroke:none;stroke-width:1;stroke-linecap:round;stroke-linejoin:round;stroke-miterlimit:4;stroke-dasharray:none;stroke-opacity:1" />
  </g>
</svg>
